  <svg
            width="20"
            height="21"
            viewBox="0 0 20 21"
            fill="none"
            xmlns="http://www.w3.org/2000/svg"
          >
            <path
              d="M6.66675 2.1665V4.6665"
              stroke="#494949"
              stroke-width="1.5"
              stroke-miterlimit="10"
              stroke-linecap="round"
              stroke-linejoin="round"
            />
            <path
              d="M13.3333 2.1665V4.6665"
              stroke="#494949"
              stroke-width="1.5"
              stroke-miterlimit="10"
              stroke-linecap="round"
              stroke-linejoin="round"
            />
            <path
              d="M2.91675 8.0752H17.0834"
              stroke="#494949"
              stroke-width="1.5"
              stroke-miterlimit="10"
              stroke-linecap="round"
              stroke-linejoin="round"
            />
            <path
              d="M16.0083 13.6416L13.0583 16.5916C12.9416 16.7082 12.8333 16.9249 12.8083 17.0832L12.6499 18.2082C12.5916 18.6166 12.875 18.8999 13.2833 18.8416L14.4083 18.6833C14.5666 18.6583 14.7916 18.5499 14.9 18.4332L17.85 15.4833C18.3583 14.9749 18.6 14.3833 17.85 13.6333C17.1083 12.8916 16.5166 13.1332 16.0083 13.6416Z"
              stroke="#494949"
              stroke-width="1.5"
              stroke-miterlimit="10"
              stroke-linecap="round"
              stroke-linejoin="round"
            />
            <path
              d="M15.5833 14.0664C15.8333 14.9664 16.5333 15.6664 17.4333 15.9164"
              stroke="#494949"
              stroke-width="1.5"
              stroke-miterlimit="10"
              stroke-linecap="round"
              stroke-linejoin="round"
            />
            <path
              d="M10 18.8332H6.66667C3.75 18.8332 2.5 17.1665 2.5 14.6665V7.58317C2.5 5.08317 3.75 3.4165 6.66667 3.4165H13.3333C16.25 3.4165 17.5 5.08317 17.5 7.58317V10.4998"
              stroke="#494949"
              stroke-width="1.5"
              stroke-miterlimit="10"
              stroke-linecap="round"
              stroke-linejoin="round"
            />
            <path
              d="M9.99632 11.9167H10.0038"
              stroke="#494949"
              stroke-width="2"
              stroke-linecap="round"
              stroke-linejoin="round"
            />
            <path
              d="M6.91185 11.9167H6.91933"
              stroke="#494949"
              stroke-width="2"
              stroke-linecap="round"
              stroke-linejoin="round"
            />
            <path
              d="M6.91185 14.4167H6.91933"
              stroke="#494949"
              stroke-width="2"
              stroke-linecap="round"
              stroke-linejoin="round"
            />
          </svg>