<svg
        width="21"
        height="21"
        viewBox="0 0 21 21"
        fill="none"
        xmlns="http://www.w3.org/2000/svg"
      >
        <path
          d="M14.2188 19.6875C15.0644 19.6875 15.75 19.0019 15.75 18.1562C15.75 17.3106 15.0644 16.625 14.2188 16.625C13.3731 16.625 12.6875 17.3106 12.6875 18.1562C12.6875 19.0019 13.3731 19.6875 14.2188 19.6875Z"
          fill="#494949"
        />
        <path
          d="M7.21875 19.6875C8.06444 19.6875 8.75 19.0019 8.75 18.1562C8.75 17.3106 8.06444 16.625 7.21875 16.625C6.37306 16.625 5.6875 17.3106 5.6875 18.1562C5.6875 19.0019 6.37306 19.6875 7.21875 19.6875Z"
          fill="#494949"
        />
        <path
          d="M4.235 3.4475L4.06 5.59125C4.025 6.0025 4.34875 6.34375 4.76 6.34375H18.1562C18.5237 6.34375 18.83 6.06375 18.8562 5.69625C18.97 4.1475 17.7887 2.8875 16.24 2.8875H5.48625C5.39875 2.5025 5.22375 2.135 4.9525 1.82875C4.515 1.365 3.9025 1.09375 3.2725 1.09375H1.75C1.39125 1.09375 1.09375 1.39125 1.09375 1.75C1.09375 2.10875 1.39125 2.40625 1.75 2.40625H3.2725C3.54375 2.40625 3.7975 2.52 3.98125 2.7125C4.165 2.91375 4.2525 3.17625 4.235 3.4475Z"
          fill="#2A2A2A"
        />
        <path
          d="M17.9463 7.65625H4.5238C4.1563 7.65625 3.8588 7.93625 3.8238 8.295L3.5088 12.1012C3.3863 13.5975 4.5588 14.875 6.05505 14.875H15.785C17.0975 14.875 18.2525 13.7988 18.3488 12.4863L18.6375 8.4C18.6725 7.9975 18.3575 7.65625 17.9463 7.65625Z"
          fill="#2A2A2A"
        />
      </svg>