<svg width="21" height="21" viewBox="0 0 21 21" fill="none" xmlns="http://www.w3.org/2000/svg">
<path d="M16.3363 1.75H14.6738C12.7663 1.75 11.76 2.75625 11.76 4.66375V6.32625C11.76 8.23375 12.7663 9.24 14.6738 9.24H16.3363C18.2438 9.24 19.25 8.23375 19.25 6.32625V4.66375C19.25 2.75625 18.2438 1.75 16.3363 1.75Z" fill="#494949"/>
<path d="M6.335 11.7512H4.6725C2.75625 11.7512 1.75 12.7575 1.75 14.665V16.3275C1.75 18.2437 2.75625 19.25 4.66375 19.25H6.32625C8.23375 19.25 9.24 18.2437 9.24 16.3362V14.6737C9.24875 12.7575 8.2425 11.7512 6.335 11.7512Z" fill="#494949"/>
<path d="M5.50375 9.2575C7.57689 9.2575 9.2575 7.57689 9.2575 5.50375C9.2575 3.43061 7.57689 1.75 5.50375 1.75C3.43061 1.75 1.75 3.43061 1.75 5.50375C1.75 7.57689 3.43061 9.2575 5.50375 9.2575Z" fill="#494949"/>
<path d="M15.4962 19.2501C17.5693 19.2501 19.2499 17.5694 19.2499 15.4963C19.2499 13.4232 17.5693 11.7426 15.4962 11.7426C13.423 11.7426 11.7424 13.4232 11.7424 15.4963C11.7424 17.5694 13.423 19.2501 15.4962 19.2501Z" fill="#494949"/>
</svg>
