<svg
    width="40"
    height="57"
    viewBox="0 0 40 57"
    fill="none"
    xmlns="http://www.w3.org/2000/svg"
>
    <g clip-path="url(#clip0_49_1926)">
        <rect y="0.5" width="40" height="56" rx="8" fill="#F8FAFC" />
        <path
            d="M-2 56.5H22.5178C26.0564 56.5 27.8522 52.243 25.3827 49.7085L9.53158 33.4403C7.96151 31.8289 5.37182 31.8289 3.80175 33.4403L-4.86492 42.335C-5.59271 43.082 -6 44.0836 -6 45.1265V52.5C-6 54.7091 -4.20914 56.5 -2 56.5Z"
            fill="#5F6C7B"
        />
        <path
            d="M37 56.5H3.31383C-0.200047 56.5 -2.00641 52.294 0.413096 49.7458L22.4326 26.555C24.0097 24.894 26.6569 24.894 28.2341 26.555L39.9007 38.8423C40.6065 39.5856 41 40.5715 41 41.5965V52.5C41 54.7091 39.2091 56.5 37 56.5Z"
            fill="#87C767"
        />
        <rect x="9" y="11.5" width="8" height="8" rx="4" fill="#87C767" />
    </g>
    <rect x="0.5" y="1" width="39" height="55" rx="7.5" stroke="#FFFFFE" />
    <defs>
        <clipPath id="clip0_49_1926">
            <rect y="0.5" width="40" height="56" rx="8" fill="white" />
        </clipPath>
    </defs>
</svg>